{
	"asset":{
		"generator":"Khronos glTF Blender I/O v3.6.15",
		"version":"2.0"
	},
	"extensionsUsed":[
		"KHR_lights_punctual"
	],
	"extensionsRequired":[
		"KHR_lights_punctual"
	],
	"extensions":{
		"KHR_lights_punctual":{
			"lights":[
				{
					"color":[
						1,
						1,
						1
					],
					"intensity":54351.41306588226,
					"type":"point",
					"name":"Light"
				}
			]
		}
	},
	"scene":0,
	"scenes":[
		{
			"name":"Scene",
			"nodes":[
				0,
				1,
				2
			]
		}
	],
	"nodes":[
		{
			"extensions":{
				"KHR_lights_punctual":{
					"light":0
				}
			},
			"name":"Light",
			"rotation":[
				-0.28416627645492554,
				0.7269423007965088,
				0.34203392267227173,
				0.5232754945755005
			],
			"translation":[
				0.37316107749938965,
				0.4750160276889801,
				0.5783429145812988
			]
		},
		{
			"camera":0,
			"name":"Camera",
			"rotation":[
				-0.20997299253940582,
				0.3857799470424652,
				0.09062844514846802,
				0.8937962055206299
			],
			"translation":[
				0.26722097396850586,
				0.18590834736824036,
				0.27258622646331787
			]
		},
		{
			"mesh":0,
			"name":"donut-node"
		}
	],
	"cameras":[
		{
			"name":"Camera",
			"perspective":{
				"aspectRatio":1.7777777777777777,
				"yfov":0.39959652046304894,
				"zfar":100,
				"znear":0.10000000149011612
			},
			"type":"perspective"
		}
	],
	"materials":[
		{
			"doubleSided":true,
			"name":"donut-material",
			"pbrMetallicRoughness":{
				"baseColorFactor":[
					0.8000000715255737,
					0.300922155380249,
					0.11328427493572235,
					1
				],
				"metallicFactor":0,
				"roughnessFactor":0.5
			}
		}
	],
	"meshes":[
		{
			"name":"donut",
			"primitives":[
				{
					"attributes":{
						"POSITION":0,
						"NORMAL":1,
						"TEXCOORD_0":2
					},
					"indices":3,
					"material":0
				}
			]
		}
	],
	"accessors":[
		{
			"bufferView":0,
			"componentType":5126,
			"count":10465,
			"max":[
				0.05035453662276268,
				0.018917322158813477,
				0.04794738441705704
			],
			"min":[
				-0.050648100674152374,
				-0.02019895613193512,
				-0.05079035460948944
			],
			"type":"VEC3"
		},
		{
			"bufferView":1,
			"componentType":5126,
			"count":10465,
			"type":"VEC3"
		},
		{
			"bufferView":2,
			"componentType":5126,
			"count":10465,
			"type":"VEC2"
		},
		{
			"bufferView":3,
			"componentType":5123,
			"count":61440,
			"type":"SCALAR"
		}
	],
	"bufferViews":[
		{
			"buffer":0,
			"byteLength":125580,
			"byteOffset":0,
			"target":34962
		},
		{
			"buffer":0,
			"byteLength":125580,
			"byteOffset":125580,
			"target":34962
		},
		{
			"buffer":0,
			"byteLength":83720,
			"byteOffset":251160,
			"target":34962
		},
		{
			"buffer":0,
			"byteLength":122880,
			"byteOffset":334880,
			"target":34963
		}
	],
	"buffers":[
		{
			"byteLength":457760,
			"uri":"data:application/octet-stream;base64,"
		}
	]
}
