{
	"asset":{
		"generator":"Khronos glTF Blender I/O v3.6.15",
		"version":"2.0"
	},
	"extensionsUsed":[
		"KHR_lights_punctual"
	],
	"extensionsRequired":[
		"KHR_lights_punctual"
	],
	"extensions":{
		"KHR_lights_punctual":{
			"lights":[
				{
					"color":[
						1,
						1,
						1
					],
					"intensity":683000,
					"type":"directional",
					"name":"Light"
				}
			]
		}
	},
	"scene":0,
	"scenes":[
		{
			"name":"Scene",
			"nodes":[
				0,
				1,
				22
			]
		}
	],
	"nodes":[
		{
			"extensions":{
				"KHR_lights_punctual":{
					"light":0
				}
			},
			"name":"Light",
			"rotation":[
				-0.28416627645492554,
				0.7269423007965088,
				0.34203392267227173,
				0.5232754945755005
			],
			"translation":[
				4.076245307922363,
				5.903861999511719,
				-1.0054539442062378
			]
		},
		{
			"camera":0,
			"name":"Camera",
			"rotation":[
				0.9098437428474426,
				-0.0664522722363472,
				0.37686964869499207,
				0.1604299694299698
			],
			"translation":[
				16,
				-8,
				-16
			]
		},
		{
			"mesh":0,
			"name":"ring-small-1",
			"rotation":[
				0.7071068286895752,
				0,
				0,
				0.7071068286895752
			],
			"translation":[
				2,
				0,
				0
			]
		},
		{
			"mesh":1,
			"name":"ring-small-2",
			"rotation":[
				0.7071068286895752,
				0,
				0,
				0.7071068286895752
			],
			"translation":[
				-2,
				0,
				0
			]
		},
		{
			"mesh":2,
			"name":"ring-small-3",
			"rotation":[
				0.5,
				0.5,
				-0.5,
				0.5
			],
			"translation":[
				0,
				0,
				-2
			]
		},
		{
			"mesh":3,
			"name":"ring-small-4",
			"rotation":[
				0.5,
				0.5,
				-0.5,
				0.5
			],
			"translation":[
				0,
				0,
				2
			]
		},
		{
			"children":[
				2,
				3,
				4,
				5
			],
			"mesh":4,
			"name":"ring-med-1",
			"rotation":[
				0.7071068286895752,
				0,
				0,
				0.7071068286895752
			],
			"translation":[
				4,
				0,
				0
			]
		},
		{
			"mesh":5,
			"name":"ring-small-10",
			"rotation":[
				0.7071068286895752,
				0,
				0,
				0.7071068286895752
			],
			"translation":[
				-2,
				0,
				0
			]
		},
		{
			"mesh":6,
			"name":"ring-small-11",
			"rotation":[
				0.5,
				0.5,
				-0.5,
				0.5
			],
			"translation":[
				0,
				0,
				-2
			]
		},
		{
			"mesh":7,
			"name":"ring-small-12",
			"rotation":[
				0.5,
				0.5,
				-0.5,
				0.5
			],
			"translation":[
				0,
				0,
				2
			]
		},
		{
			"mesh":8,
			"name":"ring-small-9",
			"rotation":[
				0.7071068286895752,
				0,
				0,
				0.7071068286895752
			],
			"translation":[
				2,
				0,
				0
			]
		},
		{
			"children":[
				7,
				8,
				9,
				10
			],
			"mesh":9,
			"name":"ring-med-2",
			"rotation":[
				0.7071068286895752,
				0,
				0,
				0.7071068286895752
			],
			"translation":[
				-4,
				0,
				0
			]
		},
		{
			"mesh":10,
			"name":"ring-small-13",
			"rotation":[
				0.7071068286895752,
				0,
				0,
				0.7071068286895752
			],
			"translation":[
				-2,
				0,
				0
			]
		},
		{
			"mesh":11,
			"name":"ring-small-14",
			"rotation":[
				0.5,
				0.5,
				-0.5,
				0.5
			],
			"translation":[
				0,
				0,
				-2
			]
		},
		{
			"mesh":12,
			"name":"ring-small-15",
			"rotation":[
				0.5,
				0.5,
				-0.5,
				0.5
			],
			"translation":[
				0,
				0,
				2
			]
		},
		{
			"mesh":13,
			"name":"ring-small-16",
			"rotation":[
				0.7071068286895752,
				0,
				0,
				0.7071068286895752
			],
			"translation":[
				2,
				0,
				0
			]
		},
		{
			"children":[
				12,
				13,
				14,
				15
			],
			"mesh":14,
			"name":"ring-med-3",
			"rotation":[
				0.5,
				0.5,
				-0.5,
				0.5
			],
			"translation":[
				0,
				0,
				-4
			]
		},
		{
			"mesh":15,
			"name":"ring-small-5",
			"rotation":[
				0.7071068286895752,
				0,
				0,
				0.7071068286895752
			],
			"translation":[
				2,
				0,
				0
			]
		},
		{
			"mesh":16,
			"name":"ring-small-6",
			"rotation":[
				0.7071068286895752,
				0,
				0,
				0.7071068286895752
			],
			"translation":[
				-2,
				0,
				0
			]
		},
		{
			"mesh":17,
			"name":"ring-small-7",
			"rotation":[
				0.5,
				0.5,
				-0.5,
				0.5
			],
			"translation":[
				0,
				0,
				-2
			]
		},
		{
			"mesh":18,
			"name":"ring-small-8",
			"rotation":[
				0.5,
				0.5,
				-0.5,
				0.5
			],
			"translation":[
				0,
				0,
				2
			]
		},
		{
			"children":[
				17,
				18,
				19,
				20
			],
			"mesh":19,
			"name":"ring-med-4",
			"rotation":[
				0.5,
				0.5,
				-0.5,
				0.5
			],
			"translation":[
				0,
				0,
				4
			]
		},
		{
			"children":[
				6,
				11,
				16,
				21
			],
			"mesh":20,
			"name":"ring-big"
		}
	],
	"cameras":[
		{
			"name":"Camera",
			"perspective":{
				"aspectRatio":1.7777777777777777,
				"yfov":0.39959652046304894,
				"zfar":100,
				"znear":0.10000000149011612
			},
			"type":"perspective"
		}
	],
	"materials":[
		{
			"doubleSided":true,
			"name":"ring-material",
			"pbrMetallicRoughness":{
				"baseColorFactor":[
					0.8000000715255737,
					0.02098943665623665,
					0.031968291848897934,
					1
				],
				"metallicFactor":0,
				"roughnessFactor":0.5
			}
		}
	],
	"meshes":[
		{
			"name":"ring-small-1-mesh",
			"primitives":[
				{
					"attributes":{
						"POSITION":0,
						"NORMAL":1,
						"TEXCOORD_0":2
					},
					"indices":3,
					"material":0
				}
			]
		},
		{
			"name":"ring-small-2-mesh",
			"primitives":[
				{
					"attributes":{
						"POSITION":4,
						"NORMAL":5,
						"TEXCOORD_0":6
					},
					"indices":3,
					"material":0
				}
			]
		},
		{
			"name":"ring-small-3-mesh",
			"primitives":[
				{
					"attributes":{
						"POSITION":7,
						"NORMAL":8,
						"TEXCOORD_0":9
					},
					"indices":3,
					"material":0
				}
			]
		},
		{
			"name":"ring-small-4-mesh",
			"primitives":[
				{
					"attributes":{
						"POSITION":10,
						"NORMAL":11,
						"TEXCOORD_0":12
					},
					"indices":3,
					"material":0
				}
			]
		},
		{
			"name":"ring-med-1-mesh",
			"primitives":[
				{
					"attributes":{
						"POSITION":13,
						"NORMAL":14,
						"TEXCOORD_0":15
					},
					"indices":3,
					"material":0
				}
			]
		},
		{
			"name":"ring-small-10-mesh",
			"primitives":[
				{
					"attributes":{
						"POSITION":16,
						"NORMAL":17,
						"TEXCOORD_0":18
					},
					"indices":3,
					"material":0
				}
			]
		},
		{
			"name":"ring-small-11-mesh",
			"primitives":[
				{
					"attributes":{
						"POSITION":19,
						"NORMAL":20,
						"TEXCOORD_0":21
					},
					"indices":3,
					"material":0
				}
			]
		},
		{
			"name":"ring-small-12-mesh",
			"primitives":[
				{
					"attributes":{
						"POSITION":22,
						"NORMAL":23,
						"TEXCOORD_0":24
					},
					"indices":3,
					"material":0
				}
			]
		},
		{
			"name":"ring-small-9-mesh",
			"primitives":[
				{
					"attributes":{
						"POSITION":25,
						"NORMAL":26,
						"TEXCOORD_0":27
					},
					"indices":3,
					"material":0
				}
			]
		},
		{
			"name":"ring-med-2-mesh",
			"primitives":[
				{
					"attributes":{
						"POSITION":28,
						"NORMAL":29,
						"TEXCOORD_0":30
					},
					"indices":3,
					"material":0
				}
			]
		},
		{
			"name":"ring-small-13-mesh",
			"primitives":[
				{
					"attributes":{
						"POSITION":31,
						"NORMAL":32,
						"TEXCOORD_0":33
					},
					"indices":3,
					"material":0
				}
			]
		},
		{
			"name":"ring-small-14-mesh",
			"primitives":[
				{
					"attributes":{
						"POSITION":34,
						"NORMAL":35,
						"TEXCOORD_0":36
					},
					"indices":3,
					"material":0
				}
			]
		},
		{
			"name":"ring-small-15-mesh",
			"primitives":[
				{
					"attributes":{
						"POSITION":37,
						"NORMAL":38,
						"TEXCOORD_0":39
					},
					"indices":3,
					"material":0
				}
			]
		},
		{
			"name":"ring-small-16-mesh",
			"primitives":[
				{
					"attributes":{
						"POSITION":40,
						"NORMAL":41,
						"TEXCOORD_0":42
					},
					"indices":3,
					"material":0
				}
			]
		},
		{
			"name":"ring-med-3-mesh",
			"primitives":[
				{
					"attributes":{
						"POSITION":43,
						"NORMAL":44,
						"TEXCOORD_0":45
					},
					"indices":3,
					"material":0
				}
			]
		},
		{
			"name":"ring-small-5-mesh",
			"primitives":[
				{
					"attributes":{
						"POSITION":46,
						"NORMAL":47,
						"TEXCOORD_0":48
					},
					"indices":3,
					"material":0
				}
			]
		},
		{
			"name":"ring-small-6-mesh",
			"primitives":[
				{
					"attributes":{
						"POSITION":49,
						"NORMAL":50,
						"TEXCOORD_0":51
					},
					"indices":3,
					"material":0
				}
			]
		},
		{
			"name":"ring-small-7-mesh",
			"primitives":[
				{
					"attributes":{
						"POSITION":52,
						"NORMAL":53,
						"TEXCOORD_0":54
					},
					"indices":3,
					"material":0
				}
			]
		},
		{
			"name":"ring-small-8-mesh",
			"primitives":[
				{
					"attributes":{
						"POSITION":55,
						"NORMAL":56,
						"TEXCOORD_0":57
					},
					"indices":3,
					"material":0
				}
			]
		},
		{
			"name":"ring-med-4-mesh",
			"primitives":[
				{
					"attributes":{
						"POSITION":58,
						"NORMAL":59,
						"TEXCOORD_0":60
					},
					"indices":3,
					"material":0
				}
			]
		},
		{
			"name":"ring-big-mesh",
			"primitives":[
				{
					"attributes":{
						"POSITION":61,
						"NORMAL":62,
						"TEXCOORD_0":63
					},
					"indices":3,
					"material":0
				}
			]
		}
	],
	"accessors":[
		{
			"bufferView":0,
			"componentType":5126,
			"count":637,
			"max":[
				1.25,
				0.25,
				1.25
			],
			"min":[
				-1.25,
				-0.25,
				-1.25
			],
			"type":"VEC3"
		},
		{
			"bufferView":1,
			"componentType":5126,
			"count":637,
			"type":"VEC3"
		},
		{
			"bufferView":2,
			"componentType":5126,
			"count":637,
			"type":"VEC2"
		},
		{
			"bufferView":3,
			"componentType":5123,
			"count":3456,
			"type":"SCALAR"
		},
		{
			"bufferView":4,
			"componentType":5126,
			"count":637,
			"max":[
				1.25,
				0.25,
				1.25
			],
			"min":[
				-1.25,
				-0.25,
				-1.25
			],
			"type":"VEC3"
		},
		{
			"bufferView":5,
			"componentType":5126,
			"count":637,
			"type":"VEC3"
		},
		{
			"bufferView":6,
			"componentType":5126,
			"count":637,
			"type":"VEC2"
		},
		{
			"bufferView":7,
			"componentType":5126,
			"count":637,
			"max":[
				1.25,
				0.25,
				1.25
			],
			"min":[
				-1.25,
				-0.25,
				-1.25
			],
			"type":"VEC3"
		},
		{
			"bufferView":8,
			"componentType":5126,
			"count":637,
			"type":"VEC3"
		},
		{
			"bufferView":9,
			"componentType":5126,
			"count":637,
			"type":"VEC2"
		},
		{
			"bufferView":10,
			"componentType":5126,
			"count":637,
			"max":[
				1.25,
				0.25,
				1.25
			],
			"min":[
				-1.25,
				-0.25,
				-1.25
			],
			"type":"VEC3"
		},
		{
			"bufferView":11,
			"componentType":5126,
			"count":637,
			"type":"VEC3"
		},
		{
			"bufferView":12,
			"componentType":5126,
			"count":637,
			"type":"VEC2"
		},
		{
			"bufferView":13,
			"componentType":5126,
			"count":637,
			"max":[
				2.25,
				0.25,
				2.25
			],
			"min":[
				-2.25,
				-0.25,
				-2.25
			],
			"type":"VEC3"
		},
		{
			"bufferView":14,
			"componentType":5126,
			"count":637,
			"type":"VEC3"
		},
		{
			"bufferView":15,
			"componentType":5126,
			"count":637,
			"type":"VEC2"
		},
		{
			"bufferView":16,
			"componentType":5126,
			"count":637,
			"max":[
				1.25,
				0.25,
				1.25
			],
			"min":[
				-1.25,
				-0.25,
				-1.25
			],
			"type":"VEC3"
		},
		{
			"bufferView":17,
			"componentType":5126,
			"count":637,
			"type":"VEC3"
		},
		{
			"bufferView":18,
			"componentType":5126,
			"count":637,
			"type":"VEC2"
		},
		{
			"bufferView":19,
			"componentType":5126,
			"count":637,
			"max":[
				1.25,
				0.25,
				1.25
			],
			"min":[
				-1.25,
				-0.25,
				-1.25
			],
			"type":"VEC3"
		},
		{
			"bufferView":20,
			"componentType":5126,
			"count":637,
			"type":"VEC3"
		},
		{
			"bufferView":21,
			"componentType":5126,
			"count":637,
			"type":"VEC2"
		},
		{
			"bufferView":22,
			"componentType":5126,
			"count":637,
			"max":[
				1.25,
				0.25,
				1.25
			],
			"min":[
				-1.25,
				-0.25,
				-1.25
			],
			"type":"VEC3"
		},
		{
			"bufferView":23,
			"componentType":5126,
			"count":637,
			"type":"VEC3"
		},
		{
			"bufferView":24,
			"componentType":5126,
			"count":637,
			"type":"VEC2"
		},
		{
			"bufferView":25,
			"componentType":5126,
			"count":637,
			"max":[
				1.25,
				0.25,
				1.25
			],
			"min":[
				-1.25,
				-0.25,
				-1.25
			],
			"type":"VEC3"
		},
		{
			"bufferView":26,
			"componentType":5126,
			"count":637,
			"type":"VEC3"
		},
		{
			"bufferView":27,
			"componentType":5126,
			"count":637,
			"type":"VEC2"
		},
		{
			"bufferView":28,
			"componentType":5126,
			"count":637,
			"max":[
				2.25,
				0.25,
				2.25
			],
			"min":[
				-2.25,
				-0.25,
				-2.25
			],
			"type":"VEC3"
		},
		{
			"bufferView":29,
			"componentType":5126,
			"count":637,
			"type":"VEC3"
		},
		{
			"bufferView":30,
			"componentType":5126,
			"count":637,
			"type":"VEC2"
		},
		{
			"bufferView":31,
			"componentType":5126,
			"count":637,
			"max":[
				1.25,
				0.25,
				1.25
			],
			"min":[
				-1.25,
				-0.25,
				-1.25
			],
			"type":"VEC3"
		},
		{
			"bufferView":32,
			"componentType":5126,
			"count":637,
			"type":"VEC3"
		},
		{
			"bufferView":33,
			"componentType":5126,
			"count":637,
			"type":"VEC2"
		},
		{
			"bufferView":34,
			"componentType":5126,
			"count":637,
			"max":[
				1.25,
				0.25,
				1.25
			],
			"min":[
				-1.25,
				-0.25,
				-1.25
			],
			"type":"VEC3"
		},
		{
			"bufferView":35,
			"componentType":5126,
			"count":637,
			"type":"VEC3"
		},
		{
			"bufferView":36,
			"componentType":5126,
			"count":637,
			"type":"VEC2"
		},
		{
			"bufferView":37,
			"componentType":5126,
			"count":637,
			"max":[
				1.25,
				0.25,
				1.25
			],
			"min":[
				-1.25,
				-0.25,
				-1.25
			],
			"type":"VEC3"
		},
		{
			"bufferView":38,
			"componentType":5126,
			"count":637,
			"type":"VEC3"
		},
		{
			"bufferView":39,
			"componentType":5126,
			"count":637,
			"type":"VEC2"
		},
		{
			"bufferView":40,
			"componentType":5126,
			"count":637,
			"max":[
				1.25,
				0.25,
				1.25
			],
			"min":[
				-1.25,
				-0.25,
				-1.25
			],
			"type":"VEC3"
		},
		{
			"bufferView":41,
			"componentType":5126,
			"count":637,
			"type":"VEC3"
		},
		{
			"bufferView":42,
			"componentType":5126,
			"count":637,
			"type":"VEC2"
		},
		{
			"bufferView":43,
			"componentType":5126,
			"count":637,
			"max":[
				2.25,
				0.25,
				2.25
			],
			"min":[
				-2.25,
				-0.25,
				-2.25
			],
			"type":"VEC3"
		},
		{
			"bufferView":44,
			"componentType":5126,
			"count":637,
			"type":"VEC3"
		},
		{
			"bufferView":45,
			"componentType":5126,
			"count":637,
			"type":"VEC2"
		},
		{
			"bufferView":46,
			"componentType":5126,
			"count":637,
			"max":[
				1.25,
				0.25,
				1.25
			],
			"min":[
				-1.25,
				-0.25,
				-1.25
			],
			"type":"VEC3"
		},
		{
			"bufferView":47,
			"componentType":5126,
			"count":637,
			"type":"VEC3"
		},
		{
			"bufferView":48,
			"componentType":5126,
			"count":637,
			"type":"VEC2"
		},
		{
			"bufferView":49,
			"componentType":5126,
			"count":637,
			"max":[
				1.25,
				0.25,
				1.25
			],
			"min":[
				-1.25,
				-0.25,
				-1.25
			],
			"type":"VEC3"
		},
		{
			"bufferView":50,
			"componentType":5126,
			"count":637,
			"type":"VEC3"
		},
		{
			"bufferView":51,
			"componentType":5126,
			"count":637,
			"type":"VEC2"
		},
		{
			"bufferView":52,
			"componentType":5126,
			"count":637,
			"max":[
				1.25,
				0.25,
				1.25
			],
			"min":[
				-1.25,
				-0.25,
				-1.25
			],
			"type":"VEC3"
		},
		{
			"bufferView":53,
			"componentType":5126,
			"count":637,
			"type":"VEC3"
		},
		{
			"bufferView":54,
			"componentType":5126,
			"count":637,
			"type":"VEC2"
		},
		{
			"bufferView":55,
			"componentType":5126,
			"count":637,
			"max":[
				1.25,
				0.25,
				1.25
			],
			"min":[
				-1.25,
				-0.25,
				-1.25
			],
			"type":"VEC3"
		},
		{
			"bufferView":56,
			"componentType":5126,
			"count":637,
			"type":"VEC3"
		},
		{
			"bufferView":57,
			"componentType":5126,
			"count":637,
			"type":"VEC2"
		},
		{
			"bufferView":58,
			"componentType":5126,
			"count":637,
			"max":[
				2.25,
				0.25,
				2.25
			],
			"min":[
				-2.25,
				-0.25,
				-2.25
			],
			"type":"VEC3"
		},
		{
			"bufferView":59,
			"componentType":5126,
			"count":637,
			"type":"VEC3"
		},
		{
			"bufferView":60,
			"componentType":5126,
			"count":637,
			"type":"VEC2"
		},
		{
			"bufferView":61,
			"componentType":5126,
			"count":637,
			"max":[
				4.25,
				0.25,
				4.25
			],
			"min":[
				-4.25,
				-0.25,
				-4.25
			],
			"type":"VEC3"
		},
		{
			"bufferView":62,
			"componentType":5126,
			"count":637,
			"type":"VEC3"
		},
		{
			"bufferView":63,
			"componentType":5126,
			"count":637,
			"type":"VEC2"
		}
	],
	"bufferViews":[
		{
			"buffer":0,
			"byteLength":7644,
			"byteOffset":0,
			"target":34962
		},
		{
			"buffer":0,
			"byteLength":7644,
			"byteOffset":7644,
			"target":34962
		},
		{
			"buffer":0,
			"byteLength":5096,
			"byteOffset":15288,
			"target":34962
		},
		{
			"buffer":0,
			"byteLength":6912,
			"byteOffset":20384,
			"target":34963
		},
		{
			"buffer":0,
			"byteLength":7644,
			"byteOffset":27296,
			"target":34962
		},
		{
			"buffer":0,
			"byteLength":7644,
			"byteOffset":34940,
			"target":34962
		},
		{
			"buffer":0,
			"byteLength":5096,
			"byteOffset":42584,
			"target":34962
		},
		{
			"buffer":0,
			"byteLength":7644,
			"byteOffset":47680,
			"target":34962
		},
		{
			"buffer":0,
			"byteLength":7644,
			"byteOffset":55324,
			"target":34962
		},
		{
			"buffer":0,
			"byteLength":5096,
			"byteOffset":62968,
			"target":34962
		},
		{
			"buffer":0,
			"byteLength":7644,
			"byteOffset":68064,
			"target":34962
		},
		{
			"buffer":0,
			"byteLength":7644,
			"byteOffset":75708,
			"target":34962
		},
		{
			"buffer":0,
			"byteLength":5096,
			"byteOffset":83352,
			"target":34962
		},
		{
			"buffer":0,
			"byteLength":7644,
			"byteOffset":88448,
			"target":34962
		},
		{
			"buffer":0,
			"byteLength":7644,
			"byteOffset":96092,
			"target":34962
		},
		{
			"buffer":0,
			"byteLength":5096,
			"byteOffset":103736,
			"target":34962
		},
		{
			"buffer":0,
			"byteLength":7644,
			"byteOffset":108832,
			"target":34962
		},
		{
			"buffer":0,
			"byteLength":7644,
			"byteOffset":116476,
			"target":34962
		},
		{
			"buffer":0,
			"byteLength":5096,
			"byteOffset":124120,
			"target":34962
		},
		{
			"buffer":0,
			"byteLength":7644,
			"byteOffset":129216,
			"target":34962
		},
		{
			"buffer":0,
			"byteLength":7644,
			"byteOffset":136860,
			"target":34962
		},
		{
			"buffer":0,
			"byteLength":5096,
			"byteOffset":144504,
			"target":34962
		},
		{
			"buffer":0,
			"byteLength":7644,
			"byteOffset":149600,
			"target":34962
		},
		{
			"buffer":0,
			"byteLength":7644,
			"byteOffset":157244,
			"target":34962
		},
		{
			"buffer":0,
			"byteLength":5096,
			"byteOffset":164888,
			"target":34962
		},
		{
			"buffer":0,
			"byteLength":7644,
			"byteOffset":169984,
			"target":34962
		},
		{
			"buffer":0,
			"byteLength":7644,
			"byteOffset":177628,
			"target":34962
		},
		{
			"buffer":0,
			"byteLength":5096,
			"byteOffset":185272,
			"target":34962
		},
		{
			"buffer":0,
			"byteLength":7644,
			"byteOffset":190368,
			"target":34962
		},
		{
			"buffer":0,
			"byteLength":7644,
			"byteOffset":198012,
			"target":34962
		},
		{
			"buffer":0,
			"byteLength":5096,
			"byteOffset":205656,
			"target":34962
		},
		{
			"buffer":0,
			"byteLength":7644,
			"byteOffset":210752,
			"target":34962
		},
		{
			"buffer":0,
			"byteLength":7644,
			"byteOffset":218396,
			"target":34962
		},
		{
			"buffer":0,
			"byteLength":5096,
			"byteOffset":226040,
			"target":34962
		},
		{
			"buffer":0,
			"byteLength":7644,
			"byteOffset":231136,
			"target":34962
		},
		{
			"buffer":0,
			"byteLength":7644,
			"byteOffset":238780,
			"target":34962
		},
		{
			"buffer":0,
			"byteLength":5096,
			"byteOffset":246424,
			"target":34962
		},
		{
			"buffer":0,
			"byteLength":7644,
			"byteOffset":251520,
			"target":34962
		},
		{
			"buffer":0,
			"byteLength":7644,
			"byteOffset":259164,
			"target":34962
		},
		{
			"buffer":0,
			"byteLength":5096,
			"byteOffset":266808,
			"target":34962
		},
		{
			"buffer":0,
			"byteLength":7644,
			"byteOffset":271904,
			"target":34962
		},
		{
			"buffer":0,
			"byteLength":7644,
			"byteOffset":279548,
			"target":34962
		},
		{
			"buffer":0,
			"byteLength":5096,
			"byteOffset":287192,
			"target":34962
		},
		{
			"buffer":0,
			"byteLength":7644,
			"byteOffset":292288,
			"target":34962
		},
		{
			"buffer":0,
			"byteLength":7644,
			"byteOffset":299932,
			"target":34962
		},
		{
			"buffer":0,
			"byteLength":5096,
			"byteOffset":307576,
			"target":34962
		},
		{
			"buffer":0,
			"byteLength":7644,
			"byteOffset":312672,
			"target":34962
		},
		{
			"buffer":0,
			"byteLength":7644,
			"byteOffset":320316,
			"target":34962
		},
		{
			"buffer":0,
			"byteLength":5096,
			"byteOffset":327960,
			"target":34962
		},
		{
			"buffer":0,
			"byteLength":7644,
			"byteOffset":333056,
			"target":34962
		},
		{
			"buffer":0,
			"byteLength":7644,
			"byteOffset":340700,
			"target":34962
		},
		{
			"buffer":0,
			"byteLength":5096,
			"byteOffset":348344,
			"target":34962
		},
		{
			"buffer":0,
			"byteLength":7644,
			"byteOffset":353440,
			"target":34962
		},
		{
			"buffer":0,
			"byteLength":7644,
			"byteOffset":361084,
			"target":34962
		},
		{
			"buffer":0,
			"byteLength":5096,
			"byteOffset":368728,
			"target":34962
		},
		{
			"buffer":0,
			"byteLength":7644,
			"byteOffset":373824,
			"target":34962
		},
		{
			"buffer":0,
			"byteLength":7644,
			"byteOffset":381468,
			"target":34962
		},
		{
			"buffer":0,
			"byteLength":5096,
			"byteOffset":389112,
			"target":34962
		},
		{
			"buffer":0,
			"byteLength":7644,
			"byteOffset":394208,
			"target":34962
		},
		{
			"buffer":0,
			"byteLength":7644,
			"byteOffset":401852,
			"target":34962
		},
		{
			"buffer":0,
			"byteLength":5096,
			"byteOffset":409496,
			"target":34962
		},
		{
			"buffer":0,
			"byteLength":7644,
			"byteOffset":414592,
			"target":34962
		},
		{
			"buffer":0,
			"byteLength":7644,
			"byteOffset":422236,
			"target":34962
		},
		{
			"buffer":0,
			"byteLength":5096,
			"byteOffset":429880,
			"target":34962
		}
	],
	"buffers":[
		{
			"byteLength":434976,
			"uri":"data:application/octet-stream;base64,"
		}
	]
}
