{
	"asset":{
		"generator":"Khronos glTF Blender I/O v3.6.15",
		"version":"2.0"
	},
	"extensionsUsed":[
		"KHR_lights_punctual"
	],
	"extensionsRequired":[
		"KHR_lights_punctual"
	],
	"extensions":{
		"KHR_lights_punctual":{
			"lights":[
				{
					"color":[
						1,
						1,
						1
					],
					"intensity":54351.41306588226,
					"type":"point",
					"name":"light"
				}
			]
		}
	},
	"scene":0,
	"scenes":[
		{
			"name":"Scene",
			"nodes":[
				0,
				1,
				2
			]
		}
	],
	"nodes":[
		{
			"extensions":{
				"KHR_lights_punctual":{
					"light":0
				}
			},
			"name":"light-node",
			"rotation":[
				-0.28416627645492554,
				0.7269423007965088,
				0.34203392267227173,
				0.5232754945755005
			],
			"translation":[
				4.076245307922363,
				5.903861999511719,
				-1.0054539442062378
			]
		},
		{
			"camera":0,
			"name":"camera-node",
			"rotation":[
				-0.20997299253940582,
				0.3857799470424652,
				0.09062844514846802,
				0.8937962055206299
			],
			"translation":[
				7.358891487121582,
				4.958309173583984,
				6.925790786743164
			]
		},
		{
			"mesh":0,
			"name":"torus-node"
		}
	],
	"cameras":[
		{
			"name":"camera",
			"perspective":{
				"aspectRatio":1.7777777777777777,
				"yfov":0.39959652046304894,
				"zfar":100,
				"znear":0.10000000149011612
			},
			"type":"perspective"
		}
	],
	"materials":[
		{
			"doubleSided":true,
			"name":"torus-material",
			"pbrMetallicRoughness":{
				"baseColorFactor":[
					0.42012444138526917,
					0.11468512564897537,
					0.8000000715255737,
					1
				],
				"metallicFactor":0,
				"roughnessFactor":0.5
			}
		}
	],
	"meshes":[
		{
			"name":"torus",
			"primitives":[
				{
					"attributes":{
						"POSITION":0,
						"NORMAL":1,
						"TEXCOORD_0":2
					},
					"indices":3,
					"material":0
				}
			]
		}
	],
	"accessors":[
		{
			"bufferView":0,
			"componentType":5126,
			"count":637,
			"max":[
				2.485431432723999,
				0.4970862865447998,
				2.485431432723999
			],
			"min":[
				-2.485431432723999,
				-0.4970862865447998,
				-2.485431432723999
			],
			"type":"VEC3"
		},
		{
			"bufferView":1,
			"componentType":5126,
			"count":637,
			"type":"VEC3"
		},
		{
			"bufferView":2,
			"componentType":5126,
			"count":637,
			"type":"VEC2"
		},
		{
			"bufferView":3,
			"componentType":5123,
			"count":3456,
			"type":"SCALAR"
		}
	],
	"bufferViews":[
		{
			"buffer":0,
			"byteLength":7644,
			"byteOffset":0,
			"target":34962
		},
		{
			"buffer":0,
			"byteLength":7644,
			"byteOffset":7644,
			"target":34962
		},
		{
			"buffer":0,
			"byteLength":5096,
			"byteOffset":15288,
			"target":34962
		},
		{
			"buffer":0,
			"byteLength":6912,
			"byteOffset":20384,
			"target":34963
		}
	],
	"buffers":[
		{
			"byteLength":27296,
			"uri":"data:application/octet-stream;base64,"
		}
	]
}
