{
	"asset":{
		"generator":"Khronos glTF Blender I/O v3.6.15",
		"version":"2.0"
	},
	"extensionsUsed":[
		"KHR_lights_punctual"
	],
	"extensionsRequired":[
		"KHR_lights_punctual"
	],
	"extensions":{
		"KHR_lights_punctual":{
			"lights":[
				{
					"color":[
						1,
						1,
						1
					],
					"intensity":54351.41306588226,
					"type":"point",
					"name":"Light"
				}
			]
		}
	},
	"scene":0,
	"scenes":[
		{
			"name":"Scene",
			"nodes":[
				0,
				1,
				3
			]
		}
	],
	"nodes":[
		{
			"extensions":{
				"KHR_lights_punctual":{
					"light":0
				}
			},
			"name":"Light",
			"rotation":[
				-0.28416627645492554,
				0.7269423007965088,
				0.34203392267227173,
				0.5232754945755005
			],
			"translation":[
				4.076245307922363,
				5.903861999511719,
				-1.0054539442062378
			]
		},
		{
			"camera":0,
			"name":"Camera",
			"rotation":[
				-0.20997299253940582,
				0.3857799470424652,
				0.09062844514846802,
				0.8937962055206299
			],
			"translation":[
				0.26722097396850586,
				0.18590834736824036,
				0.27258622646331787
			]
		},
		{
			"mesh":0,
			"name":"icing-node"
		},
		{
			"children":[
				2
			],
			"mesh":1,
			"name":"donut-node"
		}
	],
	"cameras":[
		{
			"name":"Camera",
			"perspective":{
				"aspectRatio":1.7777777777777777,
				"yfov":0.39959652046304894,
				"zfar":100,
				"znear":0.10000000149011612
			},
			"type":"perspective"
		}
	],
	"materials":[
		{
			"doubleSided":true,
			"name":"donut-material",
			"pbrMetallicRoughness":{
				"baseColorFactor":[
					0.8000000715255737,
					0.300922155380249,
					0.11328427493572235,
					1
				],
				"metallicFactor":0,
				"roughnessFactor":0.5
			}
		}
	],
	"meshes":[
		{
			"name":"Mesh",
			"primitives":[
				{
					"attributes":{
						"POSITION":0,
						"NORMAL":1,
						"TEXCOORD_0":2
					},
					"indices":3,
					"material":0
				}
			]
		},
		{
			"name":"Mesh",
			"primitives":[
				{
					"attributes":{
						"POSITION":4,
						"NORMAL":5,
						"TEXCOORD_0":6
					},
					"indices":7,
					"material":0
				}
			]
		}
	],
	"accessors":[
		{
			"bufferView":0,
			"componentType":5126,
			"count":12287,
			"max":[
				0.05279083922505379,
				0.021319221705198288,
				0.05001065135002136
			],
			"min":[
				-0.05317264050245285,
				-2.3245205738930963e-05,
				-0.053188201040029526
			],
			"type":"VEC3"
		},
		{
			"bufferView":1,
			"componentType":5126,
			"count":12287,
			"type":"VEC3"
		},
		{
			"bufferView":2,
			"componentType":5126,
			"count":12287,
			"type":"VEC2"
		},
		{
			"bufferView":3,
			"componentType":5123,
			"count":69120,
			"type":"SCALAR"
		},
		{
			"bufferView":4,
			"componentType":5126,
			"count":10767,
			"max":[
				0.05041069537401199,
				0.018917322158813477,
				0.04826504737138748
			],
			"min":[
				-0.0507943220436573,
				-0.02019895613193512,
				-0.05079035460948944
			],
			"type":"VEC3"
		},
		{
			"bufferView":5,
			"componentType":5126,
			"count":10767,
			"type":"VEC3"
		},
		{
			"bufferView":6,
			"componentType":5126,
			"count":10767,
			"type":"VEC2"
		},
		{
			"bufferView":7,
			"componentType":5123,
			"count":61440,
			"type":"SCALAR"
		}
	],
	"bufferViews":[
		{
			"buffer":0,
			"byteLength":147444,
			"byteOffset":0,
			"target":34962
		},
		{
			"buffer":0,
			"byteLength":147444,
			"byteOffset":147444,
			"target":34962
		},
		{
			"buffer":0,
			"byteLength":98296,
			"byteOffset":294888,
			"target":34962
		},
		{
			"buffer":0,
			"byteLength":138240,
			"byteOffset":393184,
			"target":34963
		},
		{
			"buffer":0,
			"byteLength":129204,
			"byteOffset":531424,
			"target":34962
		},
		{
			"buffer":0,
			"byteLength":129204,
			"byteOffset":660628,
			"target":34962
		},
		{
			"buffer":0,
			"byteLength":86136,
			"byteOffset":789832,
			"target":34962
		},
		{
			"buffer":0,
			"byteLength":122880,
			"byteOffset":875968,
			"target":34963
		}
	],
	"buffers":[
		{
			"byteLength":998848,
			"uri":"data:application/octet-stream;base64,"
		}
	]
}
